<svg id="Capa_1" data-name="Capa 1" xmlns="http://www.w3.org/2000/svg" viewBox="0 0 949.42 608.42"><defs><style>.cls-1,.cls-2{fill:#ffffff;stroke:#ffffff;stroke-miterlimit:10;stroke-width:21px;}.cls-2{font-size:464.37px;font-family:JetBrainsMonoNerdFontComplete-SemiBold, JetBrainsMono Nerd Font;font-weight:600;letter-spacing:-0.17em;}</style></defs><path class="cls-1" d="M254.89,603l-207-94.09a3.85,3.85,0,0,1-2.31-3.46V458.37a3.83,3.83,0,0,1,2.31-3.46l207-94.09a4.1,4.1,0,0,1,5.9,3.46v37.81a3.85,3.85,0,0,1-2.34,3.48L113.7,470.2q-9.81,4.13-18.63,7.11l-.18.06a3.78,3.78,0,0,0,.13,7.29l.78.23a134.87,134.87,0,0,1,17.9,6.89l144.76,65.09a3.83,3.83,0,0,1,2.33,3.47v39.19A4.1,4.1,0,0,1,254.89,603Z" transform="translate(-35.05 -235.2)"/><path class="cls-1" d="M259.81,632.72V298.48a.53.53,0,0,1,.55-.51H476a.53.53,0,0,1,.55.51v44.45a.53.53,0,0,1-.55.51H312.33a.53.53,0,0,0-.55.51v99.1a.53.53,0,0,0,.55.51h150.9a.53.53,0,0,1,.55.51V489a.54.54,0,0,1-.55.52H313.31a.53.53,0,0,0-.55.51V632.72a.53.53,0,0,1-.54.52H260.36A.53.53,0,0,1,259.81,632.72Z" transform="translate(-35.05 -235.2)"/><path class="cls-1" d="M452.94,627.22,541.64,505a3.66,3.66,0,0,0,0-4.33l-82.8-114a3.84,3.84,0,0,1,3.39-6H513a4.18,4.18,0,0,1,3.46,1.78l46.35,68q3.42,5.51,6.86,11.71c.5.9,1,1.76,1.42,2.6a4.23,4.23,0,0,0,7.39-.13c.39-.79.8-1.62,1.24-2.47a94.51,94.51,0,0,1,7.11-11.71l45.86-68a4.19,4.19,0,0,1,3.48-1.79h51.27a3.84,3.84,0,0,1,3.4,6L608,501.1a3.63,3.63,0,0,0,0,4.32l88.22,121.81a3.84,3.84,0,0,1-3.4,6H642a4.19,4.19,0,0,1-3.45-1.76l-51.25-74q-3.44-5.52-6.86-12.4c-.67-1.36-1.31-2.63-1.89-3.82a4.24,4.24,0,0,0-7.43-.06c-.62,1.21-1.28,2.5-2,3.88a93.73,93.73,0,0,1-7.35,12.4l-51.25,74a4.19,4.19,0,0,1-3.45,1.76h-50.8A3.85,3.85,0,0,1,452.94,627.22Z" transform="translate(-35.05 -235.2)"/><text class="cls-2" transform="translate(578.71 412.18) scale(1.07 1)">&gt;</text><path class="cls-1" d="M407.58,685.39,686.51,311a3.9,3.9,0,0,1,4-1.4l46.26,11.11a3.45,3.45,0,0,1,2.15,5.42L460,700.53a3.89,3.89,0,0,1-4,1.39l-46.26-11.11A3.45,3.45,0,0,1,407.58,685.39Z" transform="translate(-35.05 -235.2)"/><text x="-35.05" y="-235.2"/></svg>